<svg xmlns="http://www.w3.org/2000/svg" viewBox="0 0 1056 224" role="img" aria-labelledby="healthflowMonoLogoTitle healthflowMonoLogoDesc">
  <title id="healthflowMonoLogoTitle">HealthFlow monochrome logo</title>
  <desc id="healthflowMonoLogoDesc">Monochrome HealthFlow wordmark paired with a compact flow mark on a transparent background.</desc>
  <path
    d="M30 142C34 120 50 104 70 104C86 104 98 114 106 122C114 130 123 130 134 116C147 99 163 91 178 95C188 98 196 104 202 108"
    fill="none"
    stroke="#1F2933"
    stroke-linecap="round"
    stroke-linejoin="round"
    stroke-width="24"
  />
  <path d="M186 90L212 108L186 126Z" fill="#1F2933"/>
  <g fill="#1F2933" transform="translate(236 -14) scale(2.18)">
    <path transform="translate(0 82.65625)" d="M 46.375 0 L 46.375 -52.484375 L 39.671875 -52.484375 L 39.671875 -29.8125 L 12.671875 -29.8125 L 12.671875 -52.484375 L 5.96875 -52.484375 L 5.96875 0 L 12.671875 0 L 12.671875 -23.90625 L 39.671875 -23.90625 L 39.671875 0 Z M 46.375 0 "/>
    <path transform="translate(52 82.65625)" d="M 36.9375 -17.140625 C 36.9375 -22.609375 36.5 -26.0625 35.421875 -28.875 C 32.96875 -35.0625 27.21875 -38.8125 20.15625 -38.8125 C 9.640625 -38.8125 2.875 -31.03125 2.875 -18.640625 C 2.875 -6.265625 9.4375 1.078125 20.015625 1.078125 C 28.65625 1.078125 34.625 -3.8125 36.140625 -11.453125 L 30.09375 -11.453125 C 28.4375 -6.484375 25.0625 -4.46875 20.234375 -4.46875 C 13.96875 -4.46875 9.28125 -8.5 9.140625 -17.140625 Z M 30.53125 -22.46875 C 30.53125 -22.46875 30.53125 -22.171875 30.453125 -22.03125 L 9.28125 -22.03125 C 9.796875 -28.734375 14.046875 -33.265625 20.09375 -33.265625 C 25.984375 -33.265625 30.53125 -28.375 30.53125 -22.46875 Z M 30.53125 -22.46875 "/>
    <path transform="translate(92 82.65625)" d="M 38.515625 -0.140625 L 38.515625 -4.6875 C 37.875 -4.53125 37.578125 -4.53125 37.21875 -4.53125 C 35.140625 -4.53125 33.984375 -5.609375 33.984375 -7.484375 L 33.984375 -28.515625 C 33.984375 -35.203125 29.09375 -38.8125 19.796875 -38.8125 C 10.65625 -38.8125 5.046875 -35.28125 4.6875 -26.5625 L 10.734375 -26.5625 C 11.234375 -31.171875 13.96875 -33.265625 19.578125 -33.265625 C 24.984375 -33.265625 28.015625 -31.25 28.015625 -27.640625 L 28.015625 -26.0625 C 28.015625 -23.546875 26.5 -22.46875 21.75 -21.890625 C 13.25 -20.8125 11.953125 -20.515625 9.640625 -19.578125 C 5.25 -17.78125 3.03125 -14.40625 3.03125 -9.796875 C 3.03125 -2.953125 7.78125 1.078125 15.40625 1.078125 C 20.234375 1.078125 24.90625 -0.9375 28.21875 -4.46875 C 28.875 -1.578125 31.46875 0.5 34.421875 0.5 C 35.640625 0.5 36.578125 0.359375 38.515625 -0.140625 Z M 28.015625 -13.03125 C 28.015625 -7.625 22.53125 -4.171875 16.703125 -4.171875 C 12.03125 -4.171875 9.28125 -5.828125 9.28125 -9.9375 C 9.28125 -13.890625 11.953125 -15.625 18.359375 -16.5625 C 24.703125 -17.421875 25.984375 -17.71875 28.015625 -18.640625 Z M 28.015625 -13.03125 "/>
    <path transform="translate(132 82.65625)" d="M 10.875 0 L 10.875 -52.484375 L 4.890625 -52.484375 L 4.890625 0 Z M 10.875 0 "/>
    <path transform="translate(148 82.65625)" d="M 18.28125 0 L 18.28125 -5.046875 C 17.5 -4.828125 16.5625 -4.75 15.40625 -4.75 C 12.8125 -4.75 12.09375 -5.46875 12.09375 -8.140625 L 12.09375 -32.828125 L 18.28125 -32.828125 L 18.28125 -37.734375 L 12.09375 -37.734375 L 12.09375 -48.09375 L 6.125 -48.09375 L 6.125 -37.734375 L 1.015625 -37.734375 L 1.015625 -32.828125 L 6.125 -32.828125 L 6.125 -5.46875 C 6.125 -1.65625 8.71875 0.5 13.390625 0.5 C 14.828125 0.5 16.265625 0.359375 18.28125 0 Z M 18.28125 0 "/>
    <path transform="translate(168 82.65625)" d="M 34.984375 0 L 34.984375 -28.515625 C 34.984375 -34.84375 30.453125 -38.8125 23.109375 -38.8125 C 17.78125 -38.8125 14.546875 -37.15625 11.015625 -32.546875 L 11.015625 -52.484375 L 5.046875 -52.484375 L 5.046875 0 L 11.015625 0 L 11.015625 -20.8125 C 11.015625 -28.515625 15.046875 -33.546875 21.234375 -33.546875 C 25.484375 -33.546875 29.015625 -31.109375 29.015625 -26.140625 L 29.015625 0 Z M 34.984375 0 "/>
    <path transform="translate(208 82.65625)" d="M 41.6875 -46.578125 L 41.6875 -52.484375 L 6.484375 -52.484375 L 6.484375 0 L 13.171875 0 L 13.171875 -23.90625 L 38.234375 -23.90625 L 38.234375 -29.8125 L 13.171875 -29.8125 L 13.171875 -46.578125 Z M 41.6875 -46.578125 "/>
    <path transform="translate(252 82.65625)" d="M 10.875 0 L 10.875 -52.484375 L 4.890625 -52.484375 L 4.890625 0 Z M 10.875 0 "/>
    <path transform="translate(268 82.65625)" d="M 36.71875 -18.578125 C 36.71875 -31.609375 30.453125 -38.8125 19.578125 -38.8125 C 9 -38.8125 2.59375 -31.53125 2.59375 -18.859375 C 2.59375 -6.1875 8.921875 1.078125 19.65625 1.078125 C 30.234375 1.078125 36.71875 -6.1875 36.71875 -18.578125 Z M 30.453125 -18.640625 C 30.453125 -9.796875 26.28125 -4.46875 19.65625 -4.46875 C 12.953125 -4.46875 8.859375 -9.71875 8.859375 -18.859375 C 8.859375 -27.9375 12.953125 -33.265625 19.65625 -33.265625 C 26.421875 -33.265625 30.453125 -28.015625 30.453125 -18.640625 Z M 30.453125 -18.640625 "/>
    <path transform="translate(307 82.65625)" d="M 50.96875 -37.734375 L 44.203125 -37.734375 L 36.71875 -8.359375 L 29.296875 -37.734375 L 21.953125 -37.734375 L 14.765625 -8.359375 L 7.0625 -37.734375 L 0.4375 -37.734375 L 11.375 0 L 18.140625 0 L 25.421875 -29.59375 L 33.046875 0 L 39.890625 0 Z M 50.96875 -37.734375 "/>
  </g>
</svg>
